<?xml version="1.0" encoding="utf-8"?>
<!-- Generator: Adobe Illustrator 28.0.0, SVG Export Plug-In . SVG Version: 6.00 Build 0)  -->
<svg version="1.1" id="Layer_1" xmlns="http://www.w3.org/2000/svg" xmlns:xlink="http://www.w3.org/1999/xlink" x="0px" y="0px"
	 viewBox="0 0 1332.61 295.58" style="enable-background:new 0 0 1332.61 295.58;" xml:space="preserve">
<style type="text/css">
	.st0{fill:#9D7F1B;}
	.st1{fill-rule:evenodd;clip-rule:evenodd;fill:#6D6E71;}
	.st2{fill:#6D6E71;}
	.st3{fill-rule:evenodd;clip-rule:evenodd;fill:#9D802E;}
	.st4{fill-rule:evenodd;clip-rule:evenodd;fill:#6E6F72;}
	.st5{fill-rule:evenodd;clip-rule:evenodd;fill:#231F20;}
	.st6{fill:none;stroke:#231F20;stroke-miterlimit:10;}
</style>
<g>
	<g>
		<polygon class="st0" points="868.63,103.14 868.63,56.94 879.87,56.94 879.87,94.33 915.41,94.33 915.41,103.14 		"/>
		<path class="st0" d="M980.18,79.97c0,6.85-2.66,12.49-7.98,16.91c-2.94,2.42-6.39,4.29-10.37,5.62
			c-3.98,1.31-8.35,1.97-13.11,1.97c-4.72,0-9.09-0.66-13.08-1.97c-4-1.32-7.45-3.19-10.34-5.62c-2.64-2.17-4.62-4.68-5.94-7.53
			c-1.32-2.85-1.97-5.98-1.97-9.38c0-3.36,0.67-6.46,2.01-9.28c1.34-2.83,3.33-5.33,5.97-7.5c2.94-2.43,6.41-4.31,10.43-5.65
			c4.02-1.34,8.35-2.01,12.98-2.01c4.64,0,8.97,0.67,12.99,2.01c4.02,1.34,7.5,3.22,10.43,5.65
			C977.52,67.62,980.18,73.21,980.18,79.97 M968.63,79.97c0-2.3-0.47-4.39-1.4-6.29c-0.94-1.89-2.27-3.52-3.99-4.88
			c-1.72-1.36-3.81-2.43-6.25-3.19c-2.45-0.76-5.18-1.15-8.2-1.15c-3.02,0-5.75,0.38-8.2,1.15c-2.45,0.77-4.53,1.83-6.25,3.19
			c-1.72,1.36-3.06,2.99-3.99,4.88c-0.94,1.89-1.4,3.99-1.4,6.29c0,2.34,0.45,4.47,1.37,6.38c0.91,1.92,2.23,3.55,3.95,4.92
			c1.73,1.36,3.8,2.41,6.22,3.16c2.42,0.74,5.17,1.11,8.23,1.11c3.06,0,5.81-0.37,8.26-1.11c2.44-0.75,4.53-1.8,6.25-3.16
			c1.72-1.36,3.05-3,3.99-4.92C968.16,84.44,968.63,82.31,968.63,79.97"/>
		<path class="st0" d="M1032.12,58.63c3.45,1.12,6.38,2.72,8.8,4.79c2.43,2.06,4.29,4.55,5.58,7.47c1.3,2.91,1.95,6.13,1.95,9.66
			c0,6.81-2.75,12.38-8.23,16.72c-2.34,1.87-5.08,3.32-8.2,4.34c-3.13,1.02-6.46,1.53-9.99,1.53h-32.54v-46.2h31.01
			C1024.8,56.94,1028.67,57.5,1032.12,58.63 M1028.26,92.73c2.23-1.07,4.07-2.52,5.52-4.36c1.91-2.44,2.87-5.11,2.87-8.01
			c0-2.09-0.38-4.04-1.15-5.84c-0.77-1.79-1.83-3.34-3.19-4.65c-1.36-1.3-2.99-2.32-4.89-3.04c-1.89-0.73-3.97-1.09-6.22-1.09
			h-20.48v28.59h20.55C1023.7,94.33,1026.03,93.8,1028.26,92.73"/>
		<polygon class="st0" points="1103.33,103.14 1103.33,83.29 1069.96,83.29 1069.96,103.14 1058.73,103.14 1058.73,57 1069.96,57 
			1069.96,73.85 1103.33,73.85 1103.33,57 1114.56,57 1114.56,103.14 		"/>
		<path class="st0" d="M1173.2,103.14l-5.29-9.95h-29.61l-5.3,9.95h-11.36l24.57-46.2h13.84l24.5,46.2H1173.2z M1153.04,65.43
			l-10.15,18.95h20.29L1153.04,65.43z"/>
		<rect x="753.2" y="158.41" class="st1" width="71.77" height="11.47"/>
		<rect x="753.2" y="56.94" class="st1" width="71.77" height="11.47"/>
		<rect x="753.2" y="82.35" class="st1" width="71.77" height="11.48"/>
		<rect x="753.2" y="107.81" class="st1" width="71.77" height="11.33"/>
		<rect x="753.2" y="133.1" class="st1" width="71.77" height="11.5"/>
		<path class="st2" d="M989.46,144.93c-2.33-0.99-5.13-1.63-8.31-1.89c-3.11-0.25-6.75-0.47-10.8-0.64
			c-2.91-0.13-5.48-0.34-7.65-0.63c-2.14-0.29-3.95-0.73-5.38-1.31c-1.38-0.56-2.44-1.3-3.13-2.19c-0.68-0.87-1.02-2.01-1.02-3.39
			c0-2.65,1.39-4.66,4.25-6.17c2.92-1.53,7.31-2.31,13.03-2.31c3.52,0,6.87,0.36,9.95,1.07c3.07,0.71,6.12,1.88,9.04,3.47l0.31,0.17
			l3.54-3.84l-0.44-0.3c-2.76-1.86-6.05-3.23-9.79-4.09c-3.72-0.86-8.05-1.29-12.86-1.29c-7.33,0-13,1.22-16.86,3.61
			c-3.93,2.44-5.93,5.86-5.93,10.18c0,2.39,0.59,4.4,1.75,5.98c1.15,1.58,2.94,2.82,5.31,3.7c2.16,0.82,4.76,1.35,7.72,1.59
			c2.93,0.23,6.37,0.44,10.23,0.61c3.12,0.13,5.88,0.38,8.22,0.73c2.31,0.35,4.25,0.87,5.76,1.53c1.47,0.65,2.57,1.48,3.29,2.49
			c0.71,1,1.06,2.3,1.06,3.85c0,3.17-1.58,5.61-4.84,7.45c-3.3,1.87-8.19,2.81-14.55,2.81c-4.02,0-7.86-0.52-11.39-1.55
			c-3.53-1.03-7.05-2.65-10.44-4.83l-0.37-0.24l-2.93,4.24l0.37,0.26c3.26,2.27,7.08,4.01,11.34,5.17
			c4.25,1.15,9.07,1.74,14.32,1.74c7.84,0,13.89-1.34,17.98-4c4.16-2.69,6.27-6.5,6.27-11.32
			C996.5,150.56,994.13,146.96,989.46,144.93 M930.38,169.86h5.06v-47.11h-5.06V169.86z M914.56,146.8c2.46-2.4,3.71-5.7,3.71-9.8
			c0-2.13-0.33-4.09-0.99-5.84c-0.66-1.76-1.62-3.28-2.88-4.54c-1.25-1.25-2.79-2.22-4.57-2.88c-1.76-0.65-3.76-0.99-5.93-0.99
			h-35.3v47.11h5.06v-18.95h24.52l14.48,18.95h6.17l-14.09-19.03C908.96,150.4,912.25,149.04,914.56,146.8 M873.67,145.98v-18.3
			h28.39c7.21,0,10.71,2.98,10.71,9.11c0,2.93-0.8,5.21-2.39,6.79c-1.58,1.58-3.87,2.39-6.8,2.39L873.67,145.98L873.67,145.98z
			 M1107.71,146.8c2.46-2.4,3.71-5.7,3.71-9.8c0-2.13-0.33-4.09-0.99-5.84c-0.66-1.76-1.63-3.28-2.88-4.54
			c-1.25-1.25-2.79-2.22-4.57-2.88c-1.76-0.65-3.76-0.99-5.93-0.99h-35.3v47.11h5.06v-18.95h24.52l14.49,18.95h6.17l-14.09-19.03
			C1102.11,150.4,1105.41,149.04,1107.71,146.8 M1066.82,145.98v-18.3h28.39c7.21,0,10.71,2.98,10.71,9.11
			c0,2.93-0.81,5.21-2.39,6.79c-1.58,1.58-3.87,2.39-6.79,2.39L1066.82,145.98L1066.82,145.98z M1217.25,127.77
			c-2.5-2.07-5.46-3.68-8.79-4.8c-3.33-1.12-6.93-1.68-10.7-1.68c-3.82,0-7.44,0.57-10.77,1.68c-3.34,1.12-6.3,2.73-8.79,4.8
			c-5.82,4.79-8.78,11.01-8.78,18.48c0,7.55,2.94,13.79,8.71,18.54c2.46,2.03,5.39,3.62,8.73,4.74c3.33,1.12,7,1.68,10.9,1.68
			c3.9,0,7.55-0.57,10.87-1.68c3.31-1.12,6.24-2.71,8.69-4.74c5.78-4.75,8.72-10.99,8.72-18.54
			C1226.03,138.78,1223.07,132.56,1217.25,127.77 M1219,154.41c-1.09,2.45-2.66,4.58-4.64,6.31c-1.98,1.74-4.42,3.11-7.22,4.08
			c-2.81,0.98-5.99,1.47-9.45,1.47c-3.47,0-6.65-0.48-9.46-1.44c-2.8-0.95-5.23-2.33-7.22-4.09c-1.98-1.75-3.53-3.88-4.6-6.34
			c-1.07-2.46-1.62-5.21-1.62-8.2c0-6.15,2.45-11.22,7.29-15.06c2-1.57,4.36-2.83,7.04-3.72c2.68-0.89,5.57-1.35,8.57-1.35
			c3,0,5.88,0.45,8.56,1.35c2.68,0.89,5.05,2.14,7.04,3.72c4.88,3.88,7.35,8.95,7.35,15.06
			C1220.65,149.19,1220.09,151.95,1219,154.41 M1142.17,165.01l-21.09-42.25h-5.87l23.37,46.86l0.12,0.25h6.88l23.49-47.11h-5.87
			L1142.17,165.01z M1011.88,147.4h27.06v-4.93h-27.06v-14.78h38.93v-4.93h-43.98v47.11h45.77v-4.93h-40.71L1011.88,147.4
			L1011.88,147.4z"/>
		<polygon points="869.26,239.99 869.26,216.95 871.57,216.95 871.57,237.82 886.04,237.82 886.04,239.99 		"/>
		<path d="M905.64,223.09v16.9h-2.14v-3.13c-1.67,2.29-4.08,3.49-7.09,3.49c-4.44,0-6.5-2.01-6.5-6.32v-10.93h2.2v9.5
			c0,2.14,0.36,3.63,1.06,4.47c0.7,0.85,1.91,1.28,3.63,1.28c1.93,0,3.52-0.53,4.76-1.59c1.25-1.04,1.87-2.4,1.87-4.04v-9.62
			L905.64,223.09L905.64,223.09z"/>
		<polygon points="911.33,239.99 908.61,239.99 916.28,230.98 909.53,223.08 912.39,223.08 917.71,229.43 922.92,223.08 
			925.78,223.08 919.08,231.06 926.55,239.99 923.93,239.99 917.65,232.65 		"/>
		<path d="M945.94,234.6c-0.45,1.84-1.42,3.3-2.91,4.38c-1.51,1.08-3.32,1.62-5.44,1.62c-2.71,0-4.89-0.83-6.54-2.5
			c-1.67-1.67-2.49-3.85-2.49-6.57c0-2.69,0.82-4.89,2.49-6.56c1.67-1.67,3.85-2.49,6.54-2.49c2.71,0,4.89,0.82,6.53,2.46
			c1.64,1.64,2.46,3.83,2.46,6.56v0.51h-15.62c0.25,4.1,2.65,6.42,6.64,6.42c2.88,0,5.03-1.4,5.86-3.83L945.94,234.6L945.94,234.6z
			 M944.06,230.16c-0.13-1.68-0.78-3.04-1.96-4.05c-1.18-1.01-2.68-1.53-4.5-1.53c-1.85,0-3.36,0.51-4.56,1.53
			c-1.2,1.01-1.87,2.37-2.01,4.05H944.06z"/>
		<rect x="961.91" y="216.95" width="2.2" height="23.04"/>
		<path d="M969.73,216.95h2.2v2.62h-2.2V216.95z M969.73,223.09h2.2v16.9h-2.2V223.09z"/>
		<polygon points="982.36,239.99 974.67,223.08 977.22,223.08 983.54,237.73 989.92,223.08 992.38,223.08 984.65,239.99 		"/>
		<path d="M995.38,216.95h2.2v2.62h-2.2V216.95z M995.38,223.09h2.2v16.9h-2.2V223.09z"/>
		<path d="M1003.05,239.99v-16.9h2.14v3.12c1.63-2.29,4.06-3.47,7.07-3.47c4.47,0,6.51,1.98,6.51,6.32v10.94h-2.2v-9.5
			c0-2.15-0.36-3.65-1.06-4.49c-0.7-0.84-1.91-1.26-3.63-1.26c-1.93,0-3.52,0.53-4.77,1.57c-1.25,1.05-1.87,2.4-1.87,4.05v9.63
			L1003.05,239.99L1003.05,239.99z"/>
		<path d="M1040.86,238.71c0,1.49-0.16,2.63-0.45,3.39c-0.3,0.77-0.81,1.42-1.53,1.99c-1.62,1.31-3.88,1.95-6.85,1.95
			c-2.29,0-4.13-0.44-5.48-1.32c-1.37-0.89-2.13-2.1-2.28-3.67h2.29c0.33,2.01,2.14,3.02,5.39,3.02c2.41,0,4.13-0.39,5.17-1.19
			c1.03-0.79,1.54-2.1,1.54-3.96v-1.87c-1.82,2.3-3.88,3.35-6.74,3.35c-2.67,0-4.82-0.83-6.45-2.46c-1.65-1.64-2.48-3.77-2.48-6.42
			c0-2.65,0.83-4.78,2.48-6.42c1.63-1.63,3.78-2.45,6.45-2.45c2.8,0,4.98,1.09,6.74,3.35v-2.93h2.2L1040.86,238.71L1040.86,238.71z
			 M1036.84,226.61c-1.22-1.23-2.85-1.84-4.89-1.84c-2.03,0-3.65,0.61-4.86,1.84c-1.23,1.23-1.84,2.88-1.84,4.92
			c0,2.06,0.61,3.69,1.84,4.92c1.22,1.23,2.84,1.84,4.86,1.84c2.04,0,3.68-0.61,4.89-1.84c1.22-1.22,1.82-2.85,1.82-4.92
			C1038.66,229.47,1038.06,227.84,1036.84,226.61"/>
		<path d="M1057.35,216.95h2.2v2.62h-2.2V216.95z M1057.35,223.09h2.2v16.9h-2.2V223.09z"/>
		<path d="M1065.02,239.99v-16.9h2.14v3.12c1.63-2.29,4.06-3.47,7.07-3.47c4.47,0,6.51,1.98,6.51,6.32v10.94h-2.2v-9.5
			c0-2.15-0.36-3.65-1.06-4.49c-0.7-0.84-1.91-1.26-3.63-1.26c-1.93,0-3.52,0.53-4.76,1.57c-1.25,1.05-1.87,2.4-1.87,4.05v9.63
			L1065.02,239.99L1065.02,239.99z"/>
		<path d="M1096.97,239.99v-16.9h2.13v3.12c1.63-2.29,4.07-3.47,7.07-3.47c4.47,0,6.51,1.98,6.51,6.32v10.94h-2.2v-9.5
			c0-2.15-0.36-3.65-1.06-4.49c-0.7-0.84-1.92-1.26-3.63-1.26c-1.93,0-3.52,0.53-4.77,1.57c-1.24,1.05-1.87,2.4-1.87,4.05v9.63
			L1096.97,239.99L1096.97,239.99z"/>
		<path d="M1135.23,239.77c-0.68,0.2-1.29,0.31-1.85,0.31c-1.5,0-2.1-0.71-2.28-2.68c-1.85,2.1-4,3.01-7.25,3.01
			c-4.1,0-6.4-1.84-6.4-5.08c0-1.49,0.59-2.71,1.78-3.6c0.46-0.34,1.1-0.63,1.9-0.86c0.8-0.24,2.17-0.48,4.1-0.75
			c0.42-0.05,1.01-0.13,1.74-0.22c2.76-0.33,4.13-1.13,4.13-2.4c0-1.85-1.62-2.83-4.69-2.83c-3.86,0-5.86,1.3-6.03,3.92h-2.2
			c0.25-3.97,2.9-5.94,7.94-5.94c3.22,0,5.11,0.61,6.25,2.04c0.34,0.43,0.59,0.94,0.75,1.5c0.14,0.58,0.21,1.45,0.21,2.62v0.93v6.56
			c0,0.75,0.06,1.21,0.2,1.4c0.14,0.2,0.37,0.3,0.72,0.3c0.31,0,0.64-0.05,0.95-0.16L1135.23,239.77z M1131.1,230.83
			c-0.4,0.24-1.01,0.44-1.82,0.63c-0.83,0.2-2.15,0.43-4,0.71c-2.45,0.39-3.99,0.8-4.63,1.23c-0.64,0.45-0.97,1.1-0.97,1.99
			c0,0.92,0.39,1.63,1.18,2.18c0.8,0.55,1.85,0.83,3.19,0.83c2.09,0,3.78-0.48,5.09-1.46c1.3-0.98,1.95-2.24,1.95-3.8v-0.26
			L1131.1,230.83L1131.1,230.83z"/>
		<path d="M1142.46,235.49c0,1.26,0.14,2.02,0.42,2.3c0.28,0.3,0.81,0.44,1.59,0.44c0.5,0,1.05-0.06,1.79-0.25v1.91
			c-1.04,0.25-1.93,0.38-2.74,0.38c-1.19,0-2.03-0.34-2.52-1.01c-0.51-0.67-0.77-1.82-0.77-3.47v-10.86h-2.86v-1.84h2.86v-4.95h2.23
			v4.95h3.83v1.84h-3.83L1142.46,235.49L1142.46,235.49z"/>
		<path d="M1165.14,223.09v16.9h-2.13v-3.13c-1.67,2.29-4.08,3.49-7.09,3.49c-4.44,0-6.5-2.01-6.5-6.32v-10.93h2.2v9.5
			c0,2.14,0.36,3.63,1.06,4.47c0.71,0.85,1.92,1.28,3.63,1.28c1.93,0,3.52-0.53,4.77-1.59c1.25-1.04,1.87-2.4,1.87-4.04v-9.62
			L1165.14,223.09L1165.14,223.09z"/>
		<path d="M1172.68,239.99h-2.23v-16.9h2.23v2.81c0.98-2.13,2.88-3.41,5.08-3.41c0.73,0,1.46,0.16,2.23,0.47v2.15
			c-0.75-0.23-1.37-0.32-1.98-0.32c-2.63,0-4.4,1.42-5.33,4.28V239.99z"/>
		<path d="M1199.26,234.6c-0.45,1.84-1.42,3.3-2.91,4.38c-1.51,1.08-3.32,1.62-5.44,1.62c-2.71,0-4.89-0.83-6.54-2.5
			c-1.67-1.67-2.49-3.85-2.49-6.57c0-2.69,0.83-4.89,2.49-6.56c1.67-1.67,3.85-2.49,6.54-2.49c2.71,0,4.89,0.82,6.53,2.46
			c1.64,1.64,2.46,3.83,2.46,6.56v0.51h-15.62c0.25,4.1,2.65,6.42,6.64,6.42c2.89,0,5.03-1.4,5.86-3.83L1199.26,234.6L1199.26,234.6
			z M1197.37,230.16c-0.13-1.68-0.78-3.04-1.96-4.05c-1.18-1.01-2.68-1.53-4.5-1.53c-1.85,0-3.37,0.51-4.56,1.53
			c-1.2,1.01-1.87,2.37-2.01,4.05H1197.37z"/>
	</g>
	<g>
		<g>
			<polygon class="st3" points="197.48,158.94 197.48,87.44 214.78,87.44 214.78,145.24 269.68,145.24 269.68,158.94 			"/>
			<path class="st3" d="M369.88,123.04c0,10.6-4.1,19.3-12.3,26.1c-4.5,3.8-9.9,6.7-16,8.7s-12.9,3-20.3,3c-7.3,0-14-1-20.2-3
				c-6.2-2-11.5-4.9-16-8.7c-4.1-3.4-7.2-7.3-9.2-11.6c-2-4.4-3-9.3-3-14.5c0-5.2,1-9.9,3.1-14.4c2.1-4.4,5.1-8.3,9.3-11.5
				c4.5-3.7,9.9-6.7,16.1-8.8c6.2-2.1,12.9-3.1,20.1-3.1s13.8,1,20,3.1c6.2,2.1,11.6,5,16.1,8.8
				C365.68,103.94,369.88,112.64,369.88,123.04 M351.98,123.04L351.98,123.04c0-3.5-0.7-6.8-2.2-9.8c-1.4-2.9-3.5-5.5-6.1-7.5
				c-2.6-2.1-5.9-3.7-9.7-4.9c-3.7-1.2-8-1.8-12.7-1.8c-4.7,0-8.9,0.6-12.7,1.8c-3.8,1.2-7,2.8-9.7,4.9c-2.6,2.1-4.7,4.6-6.1,7.5
				c-1.4,2.9-2.2,6.1-2.2,9.8s0.7,6.9,2.1,9.9c1.4,2.9,3.5,5.5,6.1,7.6s5.8,3.7,9.6,4.9c3.7,1.2,8,1.8,12.7,1.8
				c4.7,0,9-0.6,12.7-1.8c3.8-1.2,7-2.8,9.7-4.9c2.6-2.1,4.7-4.6,6.1-7.6C351.28,130.04,351.98,126.74,351.98,123.04"/>
			<path class="st3" d="M453.08,90.04c5.3,1.8,9.9,4.2,13.6,7.4c3.8,3.2,6.7,7.1,8.7,11.5c1.9,4.5,2.9,9.5,2.9,14.9
				c0,10.5-4.2,19.1-12.7,25.9c-3.6,2.9-7.9,5.1-12.7,6.7c-4.8,1.6-9.9,2.4-15.4,2.4h-50.3v-71.4h48
				C441.78,87.44,447.78,88.34,453.08,90.04 M447.08,142.84L447.08,142.84c3.5-1.6,6.3-3.9,8.5-6.7c2.9-3.7,4.5-7.9,4.5-12.4
				c0-3.2-0.6-6.2-1.8-9c-1.2-2.8-2.9-5.2-4.9-7.2c-2.1-2-4.6-3.5-7.6-4.7c-2.9-1.1-6.1-1.7-9.6-1.7h-31.7v44.2h31.8
				C440.08,145.24,443.68,144.44,447.08,142.84"/>
			<polygon class="st3" points="564.68,158.94 564.68,128.24 513.08,128.24 513.08,158.94 495.78,158.94 495.78,87.54 513.08,87.54 
				513.08,113.64 564.68,113.64 564.68,87.54 582.08,87.54 582.08,158.94 			"/>
			<path class="st3" d="M671.18,158.94l-8.2-15.4h-45.7l-8.1,15.4h-17.5l38-71.4h21.4l37.8,71.4H671.18z M640.08,100.64
				L640.08,100.64l-15.7,29.3h31.4L640.08,100.64z"/>
			<rect x="106.58" y="151.64" class="st4" width="45.4" height="7.3"/>
			<rect x="106.58" y="87.44" class="st4" width="45.4" height="7.3"/>
			<rect x="106.58" y="103.44" class="st4" width="45.4" height="7.3"/>
			<rect x="106.58" y="119.64" class="st4" width="45.4" height="7.2"/>
			<rect x="106.58" y="135.54" class="st4" width="45.4" height="7.3"/>
		</g>
		<g>
			<path class="st5" d="M110.08,195.74v13.4h-3.5v-29.9h6.2c2.2,0,3.8,0.1,4.8,0.3s1.9,0.6,2.7,1.1c1,0.7,1.7,1.6,2.2,2.8
				s0.8,2.5,0.8,4s-0.3,2.8-0.8,4s-1.3,2.1-2.2,2.8c-0.7,0.5-1.7,0.9-2.7,1.2c-1,0.2-2.7,0.3-4.9,0.3h-0.9L110.08,195.74
				L110.08,195.74z M110.08,192.54h1.8c3,0,5.1-0.3,6.1-1.1c1.1-0.7,1.6-2,1.6-3.7c0-1.9-0.5-3.3-1.6-4c-1.1-0.8-3.2-1.2-6.1-1.2
				h-1.9v10H110.08z M127.78,209.14v-29.9h7.1c2,0,3.5,0.1,4.4,0.3c0.9,0.2,1.8,0.6,2.5,1.2c0.9,0.7,1.5,1.6,2,2.8s0.7,2.5,0.7,3.8
				c0,2.5-0.7,4.3-2,5.6c-1.4,1.3-3.4,1.9-6,1.9h-0.6l11.4,14.3h-4.5l-10.9-14.3h-0.6v14.3H127.78L127.78,209.14z M131.28,182.24v10
				h2.7c2.8,0,4.6-0.4,5.6-1.1s1.4-2,1.4-3.7c0-1.9-0.5-3.3-1.4-4.1c-1-0.8-2.8-1.1-5.6-1.1L131.28,182.24L131.28,182.24z
				 M150.18,209.14v-29.9h15.8v3.3h-12.2v8.5h12.2v3.3h-12.2v11.5h12.2v3.3L150.18,209.14L150.18,209.14z M171.98,209.14v-29.9h15.8
				v3.3h-12.2v8.5h12.2v3.3h-12.2v14.7L171.98,209.14L171.98,209.14z M193.18,209.14v-29.9h15.8v3.3h-12.2v8.5h12.2v3.3h-12.2v14.7
				L193.18,209.14L193.18,209.14z M214.38,209.14v-29.9h15.8v3.3h-12.2v8.5h12.2v3.3h-12.2v11.5h12.2v3.3L214.38,209.14
				L214.38,209.14z M236.18,209.14v-29.9h7.1c2,0,3.5,0.1,4.4,0.3s1.8,0.6,2.5,1.2c0.9,0.7,1.5,1.6,2,2.8s0.7,2.5,0.7,3.8
				c0,2.5-0.7,4.3-2,5.6c-1.4,1.3-3.4,1.9-6,1.9h-0.6l11.4,14.3h-4.5l-10.9-14.3h-0.5v14.3H236.18L236.18,209.14z M239.68,182.24v10
				h2.7c2.8,0,4.6-0.4,5.6-1.1c1-0.7,1.4-2,1.4-3.7c0-1.9-0.5-3.3-1.4-4.1s-2.8-1.1-5.6-1.1L239.68,182.24L239.68,182.24z
				 M258.58,209.14v-29.9h15.7v3.3h-12.2v8.5h12.2v3.3h-12.2v11.5h12.2v3.3L258.58,209.14L258.58,209.14z M283.88,205.84h2.2
				c3.7,0,6.2-0.2,7.6-0.5c1.4-0.3,2.6-0.9,3.5-1.7c1.2-1,2.1-2.4,2.8-4c0.6-1.6,1-3.5,1-5.6s-0.3-4-1-5.5c-0.6-1.5-1.5-2.9-2.8-4
				c-1-0.8-2.1-1.3-3.6-1.7c-1.4-0.3-4-0.5-7.6-0.5h-2.2v23.5H283.88z M280.38,209.14v-29.9h5.7c4.3,0,7.2,0.2,9,0.6
				c1.8,0.4,3.3,1.1,4.6,2.1c1.7,1.3,3,3,3.9,5.1c0.9,2,1.3,4.4,1.3,7.1c0,2.7-0.4,5-1.3,7.1c-0.9,2-2.2,3.7-3.9,5.1
				c-1.3,1-2.8,1.7-4.5,2.1c-1.7,0.4-4.3,0.6-7.8,0.6h-1.3L280.38,209.14L280.38,209.14z"/>
			<path class="st5" d="M321.38,195.74v13.5h-3.5v-29.9h6.2c2.2,0,3.8,0.1,4.8,0.3s1.9,0.6,2.7,1.1c1,0.7,1.7,1.6,2.2,2.8
				s0.8,2.5,0.8,4c0,1.4-0.3,2.8-0.8,4s-1.3,2.1-2.2,2.8c-0.7,0.5-1.7,0.9-2.7,1.2c-1,0.2-2.6,0.3-4.9,0.3h-1L321.38,195.74
				L321.38,195.74z M321.38,192.54h1.8c3,0,5.1-0.3,6.1-1.1c1.1-0.7,1.6-2,1.6-3.7c0-1.9-0.5-3.3-1.6-4c-1.1-0.8-3.2-1.2-6.1-1.2
				h-1.8V192.54L321.38,192.54z M346.28,185.94l-4.8,11h9.5L346.28,185.94z M346.28,178.04l-13.6,31.1h3.8l3.9-9.1h11.7l3.8,9.1h3.8
				L346.28,178.04z M363.08,209.14v-29.9h7.1c2,0,3.5,0.1,4.4,0.3s1.8,0.6,2.5,1.1c0.9,0.7,1.5,1.6,2,2.8s0.7,2.5,0.7,3.8
				c0,2.5-0.7,4.3-2,5.6c-1.4,1.3-3.4,1.9-6,1.9h-0.6l11.4,14.3h-4.5l-11-14.2h-0.5v14.3L363.08,209.14L363.08,209.14z
				 M366.48,182.24v10h2.7c2.8,0,4.6-0.4,5.6-1.1s1.4-2,1.4-3.7c0-1.9-0.5-3.3-1.4-4.1s-2.8-1.1-5.6-1.1L366.48,182.24
				L366.48,182.24z M390.68,209.14h3.6v-26.5h8.4v-3.4h-20.5v3.4h8.4v26.5H390.68z M406.58,209.14v-31.1l21.9,23.9v-22.7h3.4v31.1
				l-21.8-23.7v22.5H406.58z M438.98,209.14v-29.9h15.8v3.3h-12.2v8.5h12.2v3.3h-12.2v11.5h12.2v3.3L438.98,209.14L438.98,209.14z
				 M460.78,209.14v-29.9h7.1c2,0,3.5,0.1,4.4,0.3s1.8,0.6,2.5,1.1c0.9,0.7,1.5,1.6,2,2.8s0.7,2.5,0.7,3.8c0,2.5-0.7,4.3-2,5.6
				s-3.4,1.9-6,1.9h-0.6l11.4,14.3h-4.5l-11-14.2h-0.5v14.3L460.78,209.14L460.78,209.14z M464.28,182.24v10h2.7
				c2.8,0,4.6-0.4,5.6-1.1c1-0.7,1.4-2,1.4-3.7c0-1.9-0.5-3.3-1.4-4.1s-2.8-1.1-5.6-1.1L464.28,182.24L464.28,182.24z"/>
		</g>
	</g>
	<line class="st6" x1="721.08" y1="23.64" x2="721.08" y2="271.94"/>
</g>
</svg>
